<?xml version="1.0" encoding="UTF-8"?>
<svg version="1.1" viewBox="0 0 1672 1888" width="1280" height="1280" xmlns="http://www.w3.org/2000/svg">
<path transform="translate(1361)" d="m0 0h7v3l7 2 8 6 5 3 9 6 11 9 9 6 7 6v2l4 2 11 7 10 7 11 7 8 7v2l4 2 11 7 10 7 11 7 9 6 11 9v2l4 2 11 7 10 7 11 7 4 3v2l4 2 12 8v2l4 2 11 7 10 7 7 6v2l4 2 15 10 5 3 1 125 3 2v773l-3 4-1 4-36 18-7 2-6 5-8 4-5 4-8 2-14 7-7 2-7 5-38 19-18 10-4 3-94 47-18 10-4 3-86 43-10 6-7 4-6 2-9 6-84 42-12 7-2 2-8 2-16 8-19 10-5 4-70 35-10 6-7 4-6 2-7 5-8 2-16 8-11 6-13 13-2 10-8 8-1 2h-2l-2 7-4 5-4 4h-2l-2 7-4 5h-2l-1 10-8 8-1 2h-2l-2 7-6 8-8 15-2 2h-7v9l-6 7-3 7-5 9-9 10-3 6-5 7-6 12-4 5-5 5-7 14-8 9-5 5-7 14-5 9-8 9-7 14-6 7-2 5-6 8-3 5-5 6-2 5-6 7-2 5-6 7-2 5-6 8-6 12-4 5h-2l-2 7-6 7-3 6-12 12h-8l-3-2v-2h-5l-12-12-2-1v-2l-7-2-7-6-6-3-8-7v-2l-7-2-7-6-6-3-8-7v-2l-7-2-9-8v-2l-7-2-9-8v-2l-7-2-9-8v-2l-7-2-9-8v-2l-7-2-9-8v-2l-7-2-7-6-5-2-7-6-5-2-11-11-7-4-5-3h-12l-16 8-8 7h-7l-8 7-1 1h-7l-8 7-7 3-6 6-9 1-4 3h-7l-8-8-2-1v-2l-7-2-10-10-5-4-6-3-9-9-5-4-6-3-13-13-5-4-6-3-10-9-6-3-9-9-5-4-6-3-13-13-5-4-6-3-9-9-5-4-6-3-9-9-5-4-6-3-13-13-5-4-6-3-9-9-5-4-6-3-9-9-5-4-6-3-12-12-4-9v-884l6-5 9-4 9-3 9-6 78-39 9-3 25-12 48-24 15-8 7-5 9-3 25-12 128-64 17-9 8-4 9-2 8-6 8-2 276-138 9-3 25-12 222-111 11-6 9-2 8-6 15-8 17-8 9-3 25-12 180-90h3zm-24 72-4 3-9 2-5 5-9 2-19 10-4 4-19 9-7 2-6 5-11 3-17 9-24 12-4 4-9 2-7 6-11 3-17 9-4 4-9 2-16 8-19 10-23 11-17 9-23 11-19 10-7 4-3 3-11 3-6 2-10 4-16 8-8 6-4 2-7 2-6 5-23 11-17 9-9 2-7 6-9 2-7 6-9 2-6 4-1 2-11 3-10 6-3 3-23 11-12 6-7 2-6 5-9 2-7 6-9 2-7 6-11 3-17 9-23 11-19 10-9 6-16 8-10 3-206 103-7 2-6 5-9 2-7 6-7 3-6 2-10 4-13 7-5 4-15 8-23 11-13 6-6 2-17 8-17 9-23 11-17 9-23 11-16 8-17 9-10 5-1 4 3 3-3 2v808h12l23-11 120-60 9-3 17-8 15-8 9-6 21-11 23-11 1-1 9-2 7-6 8-1 4-3h2l2 4 5 5 1 45 3 1 1 87 3 2 1 58 3 1 1 56 4-1 8-14 6-9 6-7 6-9 7-11 3-3 3-6 8-9 6-10 5-8 5-9 6-9 7-9 3-6 9-11 6-12 4-4v-2h2l4-6 6-12 9-10 6-10 7-10 7-11 6-9 7-10 6-9 7-11 7-10 4-5 3-6 8-9 6-10 7-10 7-11 6-9 7-10 6-9 7-11 7-10 7-11 6-9 7-10 3-5 5-7 3-5 5-5 18-10 21-10 3-2 9-2 8-6 22-11 17-9 23-11 10-5 9-3 25-12 48-24 15-8 9-6 16-8 5-3 9-2 162-81 17-9 8-4 9-2 8-6 62-31 17-9 8-4 8-1 8-7 8-1 6-5v-2l-3-2v-798l3-3v-8l-5-6z" fill="#A676FB"/>
<path transform="translate(899,392)" d="m0 0 5 1v2l4 2-3 5-2 9-8 16-2 3-1 8-3 4-2 5-2 3-1 8-3 4-2 5-8 16-2 3-1 8-5 6h-2l-2 7-4 8-4 5h-2l-2 7-25 25-6 2-5 5-8 4-4 4-6 2v10h7l6-3 9-2 2-2h41l9 5 32 32 3 6 6 8 9 19 2 2-1 5-46 23-7 2-6 5-23 11-16 8-5 2h-9l-2-2-3-7-3-6-6-8-3-5-9-10-11-11-11-6h-12l-9 4-1 89-19 10-7 4-8 5-15 7-6 2-16 8-6 5-11 3-5 2h-6l-1-1v-262l15-7 76-38h8l1 1v79l6-4 5-1 2-6 5-6h2l2-4 5-8 4-5 4-10 3-9 5-10 2-8 4-12 6-12 2-8 5-10h2l2-4 4-3 8-1 7-6 17-9 17-8 9-3 17-8 16-8z" fill="#EBE1FC"/>
<path transform="translate(1259,568)" d="m0 0h5v12l-3 6-2 9-5 10-2 7-11 23-3 9-12 25-8 15-5 6-2 5-6 7-2 5-21 21-5 2-6 5-16 8-2 2-1 14 5-3 10-2 3-2 9-2 2-2h29l4 3 8 1 6 5 4 4v2l5 1 8 7 7 8 3 5 5 7 3 5 5 7 1 5 3 1 4 5v12l-5 5-25 12-11 5-6 2-17 8-17 9-19 9h-10l-5-5-3-6-6-8-4-7-7-7-3-6-5-6-18-9v-2l-5 4h-14v91l-5 4-23 11-16 8-13 6-6 2-25 12-6 2h-9v-4l2-1 1-258 15-7 12-6 9-3 25-12 15-8 9-6 6-3 7-1 2 2v79l11-9 9-10 3-3 3-7 9-17 5-14 7-16 6-19 6-11 2-6 5-4 23-11 17-9 6-3 7-5 8-2 9-5 5-4 10-3z" fill="#EBE2FB"/>
<path transform="translate(663,863)" d="m0 0 4 2 8 16 5 11 2 7 13 26 2 9 6 11 2 9 6 11 2 9 6 11 2 9 8 16 3 7 2 6 2 5 2 7 13 26 2 9 3 5v7l-17 9-24 12-4 4-23 11-5 2-6 2-17 8-4 1-4-5-6-14-9 2-17 8-17 9-23 11-7 3-2 6-2 2-1 13-3 3-1 9-17 9-23 11-17 9-23 11-20 10-4-1v-7l3-6 1-11 7-13 1-11 3-6 2-12 2-4 2-12 2-4 2-8 2-5 2-11 2-4 2-8 4-12 6-17 2-11 2-4 2-8 6-17 2-11 2-4 2-8 10-29 2-11 2-4 2-8 2-5 1-9 3-5 2-9 2-3 2-10 5-4 23-11 78-39zm-49 109-4 3-10 1-1 32-3 1-1 30-3 2-1 17-3 4v2l7-1 16-8 17-9-1-5-2-3-1-11-3-5-1-28-1-2h-2l-1-19z" fill="#EBE1FB"/>
<path transform="translate(469,607)" d="m0 0 3 2v81l-5 5-8 4-6 5-9 1v2l-5 4-11 3-19 10-1 178-26 13-9 3-25 12-36 18-4-1-1-171-7 2-16 8-21 10-6 2-11 5-4-2-2-2v-77l6-7 23-12 46-23 9-3 24-12 9-6 86-43 9-3 11-5z" fill="#EAE1FB"/>
<path transform="translate(470,959)" d="m0 0 2 1v86l-19 10-7 4h-2l-1 3-9 2-16 8-9 4-1 178-5 4-23 11-18 9-9 3-25 12-13 6h-6l-1-1v-171l-46 23-9 3-5 2-4-1-4-4v-73l3-4 2-5 58-29 9-3 25-12 23-12 9-6 62-31 9-3 25-12z" fill="#EBE1FC"/>
<path transform="translate(874,759)" d="m0 0 2 1 1 63 3 2v101l-4 6 7-2 44-22 9-3 22-10 3-2 4 1 2 2 1 4v79l-5 4-12 5-7 2-9 5-3 1-1 3-9 2-38 19-7 2-10 5-4 4-23 11-17 9-23 11-13 6h-10l-1-1v-258l6-5 6-3 6-5 9-2 8-6 15-8 18-8 8-3z" fill="#EBE2FB"/>
<path transform="translate(1377,1460)" d="m0 0 4 2 3 7 2 6 3 11 3 7 2 6 6 14 2 6 8 16 9 10 5 6 3 5 9 10 10 10 2 1v2l4 2 9 6 10 6 19 10 8 4 14 2 4 2 9 1 6 3 7 1 3 4-2 3-11 3-1 1-13 2-3 2-11 3-9 3-19 9-10 6-7 7-6 3-10 9-14 14-2 6-4 5-4 4h-2l-2 7-10 19-4 8-3 7-1 1-2 13-2 3-2 9-2 3-1 9-6 1-2-2-1-12-3-4-2-14-2-3-2-8-16-32-6-8-3-5-9-10-25-25-5-4-23-11-9-5-9-2-10-5-1-1-18-1-7-3-5-2-1-5 2-2 11-1 6-3 13-2 3-2 9-2 8-4 3-2 9-2 8-6 13-7 15-14 3-3 5-1 1-5 5-6 5-5h2l2-4 6-10 3-4 2-8 6-7 5-14 7-21 2-10 2-5 1-7z" fill="#A676FC"/>
<path transform="translate(597,543)" d="m0 0 3 2v261l-90 45-9 1-1-2v-261l15-7 76-38z" fill="#EBE2FC"/>
<path transform="translate(1361)" d="m0 0h7v3l7 2 8 6 5 3 9 6 11 9 9 6 7 6v2l4 2 11 7 10 7 11 7 8 7v2l4 2 11 7 10 7 11 7 9 6 11 9v2l4 2 11 7 10 7 11 7 4 3v2l4 2 12 8v2l4 2 11 7 10 7 7 6v2l4 2 15 10 5 3 1 125 3 2v773l-3 4-1 4-36 18-7 2-6 5-8 4-5 4-8 2-14 7-7 2-7 5-38 19-18 10-4 3-94 47-18 10-4 3-86 43-10 6-7 4-6 2-9 6-84 42-12 7-2 2-8 2-16 8-19 10-5 4-70 35-10 6-7 4-6 2-7 5-8 2-16 8-11 6-13 13-2 10-8 8-1 2h-2l-2 7-4 5-4 4h-2l-2 7-4 5h-2l-1 10-8 8-1 2h-2l-2 7-6 8-8 15-2 2h-7l7-11 20-30 11-17 8-12 17-26 9-13 7-6 16-9 68-34 19-10 31-16 16-9 54-27 22-12 24-12 19-10 20-10 19-10 37-19 19-10 24-12 22-12 19-10 19-9 19-10 22-11 19-10 28-15 33-17 19-10 32-16 52-27 3-1-1-765-1-134-4-4-19-14-18-13-38-28-16-11-54-39-15-11-18-13-17-12-14-10-19-14-18-13-15-10-1-1-7 1-72 36-23 11-26 13-19 9-19 10-25 12-16 8-44 21-10 5-2-1 8-6 15-8 17-8 9-3 25-12 180-90h3z" fill="#040205"/>
<path transform="translate(1343,65)" d="m0 0h2v18h-1l-2-7-3-3-4 2-11 3-5 5-9 2-19 10-4 4-19 9-7 2-6 5-11 3-17 9-24 12-4 4-9 2-7 6-11 3-17 9-4 4-9 2-16 8-19 10-23 11-17 9-23 11-19 10-7 4-3 3-11 3-6 2-10 4-16 8-8 6-4 2-7 2-6 5-23 11-17 9-9 2-7 6-9 2-7 6-9 2-4 3h-2l-1 3-11 3-10 6-3 3-23 11-12 6-7 2-6 5-9 2-7 6-9 2-7 6-11 3-17 9-23 11-19 10-9 6-16 8-10 3-206 103-7 2-6 5-9 2-7 6-7 3-6 2-10 4-13 7-5 4-15 8-23 11-13 6-6 2-17 8-17 9-23 11-17 9-23 11-16 8-17 9-10 5-1 3 4 2-2 3h-2v808l12-1 23-11 120-60 9-3 17-8 15-8 9-6 21-11 23-11 1-1 9-2 7-6 8-1 4-3 2 1v2l-28 13-56 28-19 10-34 16-21 10-16 8-21 11-19 9-19 10-16 8-17 8-13 7-5-1v-821l2-7 15-7 19-9 16-8 17-9 16-8 47-23 17-8 22-12 23-11 40-20 46-22 19-9 19-10 80-40 25-12 114-57 23-11 74-37 19-9 19-10 17-8 40-20 21-10 16-8 29-15 17-9 27-12 16-8 17-9 23-11 19-10 32-16 25-12 26-13 23-11 33-17 24-12 23-11 17-8 19-10z" fill="#050307"/>
<path transform="translate(1048,435)" d="m0 0h3l1 2v56l-1 3-8 7-11 3-16 8-17 9-23 11-17 9-23 11-12 6h-7l-1-2v-56l5-5 10-6 4-3 9-3 25-12 74-37z" fill="#E9DFFC"/>
<path transform="translate(301,52)" d="m0 0 3 1v26h2l2 10 1 13 2 3 2 17 2 3 2 9 9 10 6 5 4 5 2 1 11 1 7 3 10 1 2 2 10 1 25 1 2 3 14 1 1 3-2 1-20 1-3 2-34 2-2 2-13 2-11 6-18 18-1 9-3 4-1 20-3 3-1 20-3 5-1 17h-4l-1-14-3-3-1-27-1-7-2-2-1-14-5-12-6-10-8-6-14-7-8-1-3-3-38-1-2-4h-21l-2-1v-3l24-1 1-3 31-1 1-3 16-1 16-8 7-5 4-7 6-12 1-3 1-18 3-6 1-32 3-8 1-7z" fill="#A575FB"/>
<path transform="translate(1100,131)" d="m0 0 3 1-16 8-17 8-19 10-32 16-21 10-16 8-17 8-19 10-23 11-17 9-19 9-32 16-25 12-20 9-5 3h-3v2l-32 16-29 14-19 9-52 26-23 11-27 14-30 15-23 11-35 17-23 11-84 42-23 11-24 12-23 11-32 16-17 9-23 11-34 17-31 14-19 10-70 35h-2l1 528 1 357 3 8 11 10 8 6 15 12 11 9 13 11 11 9 16 13 13 10 11 9 16 13 14 12 8 6 13 11 9 7 12 9 2 3-4-2-8-5-9-8-6-3-9-9-5-4-6-3-13-13-5-4-6-3-9-9-5-4-6-3-9-9-5-4-6-3-13-13-5-4-6-3-9-9-5-4-6-3-9-9-5-4-6-3-12-12-4-9v-884l6-5 9-4 9-3 9-6 78-39 9-3 25-12 48-24 15-8 7-5 9-3 25-12 128-64 17-9 8-4 9-2 8-6 8-2 276-138 9-3 25-12 222-111 11-6z" fill="#020103"/>
<path transform="translate(1344,85)" d="m0 0h1v810l-21 9-2-1 8-7 8-1 5-4 1-2-4-2v-798z" fill="#020102"/>
<path transform="translate(1217,955)" d="m0 0 2 1-16 8-29 14-136 68-28 13-16 8-35 18-60 30-20 9-17 8-19 10-16 8-23 12-22 10-19 10-7 4h-2l-2 4-10 16-7 10-13 20-13 19-40 60-8 11-10 15-9 14h-2l-2 5-13 19-8 12-11 17-13 19-7 11-13 19-12 17-10 15-9 14-13 20-14 20-13 19-10 14-9 14-6 9-5 1-2-19-5-99-2-40-3-45-3-51v-10l6 4 1 2 1 45 3 3 1 85 3 2 1 58 3 3v54l4-1 2-5 8-14 9-11 6-9 7-11 3-3 3-6 8-9 6-10 5-8 5-9 6-9 7-9 3-6 9-11 6-12 5-6h2l6-12 5-8 7-8 6-10 7-10 7-11 6-9 7-10 6-9 7-11 7-10 4-5 3-6 8-9 6-10 7-10 7-11 6-9 7-10 6-9 7-11 7-10 7-11 6-9 7-10 3-5 5-7 3-5 4-5 20-11 21-10 3-2 9-2 8-6 22-11 17-9 23-11 10-5 9-3 25-12 48-24 15-8 9-6 16-8 5-3 9-2 162-81 17-9 8-4z" fill="#09060D"/>
<path transform="translate(1377,1460)" d="m0 0 4 2 3 7 2 6 3 11 3 7 2 6 6 14 2 6 8 16 9 10 5 6 3 5 9 10 10 10 2 1v2l4 2 9 6 10 6 19 10 8 4 14 2 4 2 9 1 6 3 7 1 3 4-2 3-11 3-1 1-13 2-3 2-11 3-9 3-19 9-10 6-7 7-6 3-10 9-14 14-2 6-4 5-4 4h-2l-2 7-10 19-4 8-3 7-1 1-2 13-2 3-2 9-2 3-1 9-6 1-2-2v-12l2 3 1 8 1-1 4-24 9-25 13-25 10-13 11-13 13-13 13-10 17-11 19-9 17-6 25-6 7-2-13-2-17-4-18-6-16-8-15-8-16-12-6-5v-2l-4-2-14-14-11-14-9-16-7-16-4-8-8-31-1-7h-1l-3 17-8 26-8 18-9 16-14 18-11 12-22 18-17 10-17 8-23 8-17 4h-7v1l12 3 16 3 29 12 19 10 14 10 15 14 7 7 9 11 11 15 6 11 10 22 4 14 2 13-4-3-2-14-2-3-2-8-16-32-6-8-3-5-9-10-25-25-5-4-23-11-9-5-9-2-10-5-1-1-18-1-7-3-5-2-1-5 2-2 11-1 6-3 13-2 3-2 9-2 8-4 3-2 9-2 8-6 13-7 15-14 3-3 5-1 1-5 5-6 5-5h2l2-4 6-10 3-4 2-8 6-7 5-14 7-21 2-10 2-5 1-7z" fill="#08050C"/>
<path transform="translate(1100,131)" d="m0 0 3 1-16 8-17 8-19 10-32 16-21 10-16 8-17 8-19 10-23 11-17 9-19 9-32 16-25 12-20 9-5 3h-3v2l-32 16-29 14-19 9-52 26-23 11-27 14-30 15-23 11-35 17-23 11-84 42-23 11-24 12-23 11-32 16-17 9-23 11-34 17-31 14-19 10-48 24h-3l5-5 82-41 9-3 25-12 48-24 15-8 7-5 9-3 25-12 128-64 17-9 8-4 9-2 8-6 8-2 276-138 9-3 25-12 222-111 11-6z" fill="#050306"/>
<path transform="translate(727,476)" d="m0 0h8l-1 2-5 1-31 15-56 28-3 1v260l23-11 17-9 23-11 30-15h2v-64l1-26 7-4 4-1h13l10 5 12 11 10 12 12 18 6 10 12-5 25-12 19-10 20-9 31-15-8-16-10-16-11-14-12-13-12-9-10-4-18-1-16 2-20 7-7 2-1-1v-8l2 3h7l6-3 9-2 2-2h41l9 5 32 32 3 6 6 8 9 19 2 2-1 5-46 23-7 2-6 5-23 11-16 8-5 2h-9l-2-2-3-7-3-6-6-8-3-5-9-10-11-11-11-6h-12l-9 4-1 89-19 10-7 4-8 5-15 7-6 2-16 8-6 5-11 3-5 2h-6l-1-1v-262l15-7z" fill="#0A060E"/>
<path transform="translate(457,1336)" d="m0 0 6 4 1 2 1 45 3 3 1 85 3 2 1 58 3 3v54l4-1 2-5 8-14 9-11 6-9 7-11 3-3 3-6 8-9 6-10 5-8 5-9 6-9 7-9 3-5 6-5-2 5-11 16-9 14-13 20-14 20-13 19-10 14-9 14-6 9-5 1-2-19-5-99-2-40-3-45-3-51z" fill="#060408"/>
<path transform="translate(597,543)" d="m0 0 3 2v261l-90 45-9 1-1-2v-261l15-7 76-38 4 1-17 9-23 11-50 25h-2l1 260 78-39 15-7z" fill="#020103"/>
<path transform="translate(469,607)" d="m0 0 3 2v81l-5 5-8 4-6 5-9 1v2l-5 4-11 3-19 10-1 178-26 13-9 3-25 12-36 18-4-1-1-171-7 2-16 8-21 10-6 2-11 5-4-2-2-2v-77l2-3 2 1v80l5-1 41-20 18-9h2v176l35-18 24-12 20-9 15-7 1-177 22-12 25-12 16-9 1-1z" fill="#030205"/>
<path transform="translate(470,959)" d="m0 0 2 1v86l-19 10-7 4h-2l-1 3-9 2-16 8-9 4-1 178-5 4-23 11-18 9-9 3-25 12-13 6h-6l-1-1v-171l-46 23-9 3-7 2 3-3 33-16 26-13h2v175l22-10 16-8 36-17 15-8 5-3 1-176 6-4 23-11 22-11 13-7 1-83-3-1z" fill="#030204"/>
<path transform="translate(871,760)" d="m0 0 3 1-16 9-30 14-38 19-10 6v251l1 6 6-1 48-24 19-10 14-7 2 1-7 6-23 11-17 9-23 11-13 6h-10l-1-1v-258l6-5 6-3 6-5 9-2 8-6 15-8 18-8 8-3z" fill="#020102"/>
<path transform="translate(878,1562)" d="m0 0 2 1v6l-6 7-3 7-5 9-9 10-3 6-5 7-6 12-4 5-5 5-7 14-8 9-5 5-7 14-5 9-8 9-7 14-6 7-2 5-6 8-3 5-5 6-2 5-6 7-2 5-6 7-2 5-6 8-6 12-4 5h-2l-2 7-6 7-3 6-12 12h-8l-3-2v-2h-5l-13-13h3l18 13 3 2 4-1 16-25 8-11 10-16 44-66 16-25 11-17 22-33 7-10 18-27 15-24z" fill="#09060D"/>
<path transform="translate(1498,1608)" d="m0 0h10l8 3 9 1 6 3 7 1 3 4-2 3-11 3-1 1-13 2-3 2-11 3-9 3-19 9-10 6-7 7-6 3-10 9-14 14-2 6-4 5-4 4h-2l-2 7-10 19-4 8-3 7-1 1-2 13-2 3-2 9-2 3-1 9-6 1-2-2v-12l2 3 1 8 1-1 4-24 9-25 13-25 10-13 11-13 13-13 13-10 17-11 19-9 17-6 25-6 7-2-13-2-17-4-10-3z" fill="#060408"/>
<path transform="translate(579,388)" d="m0 0m-2 1h2l-1 3-29 14-28 13-96 48-23 11-24 12-23 11-32 16-17 9-23 11-34 17-31 14-19 10-48 24h-3l5-5 82-41 9-3 25-12 48-24 15-8 7-5 9-3 25-12 128-64 17-9 8-4 9-2 8-6 8-2 16-8z" fill="#040205"/>
<path transform="translate(301,52)" d="m0 0 3 1v26h2l2 10 1 13 2 3 2 17 2 3 2 9 9 10 6 5 4 5 2 1 11 1 7 3 10 1 2 2 10 1 25 1 1 4h-12l-16-1-31-6-11-4-9-6-7-7-5-9-5-16-4-21-2-19v-24l-1-1v8l-1 6-2 35-2 8-2 13-5 13-6 10-8 7-12 6-21 5-12 2-23 1 2-4 31-1 1-3 16-1 16-8 7-5 4-7 6-12 1-3 1-18 3-6 1-32 3-8 1-7z" fill="#0F0A16"/>
<path transform="translate(736,1034)" d="m0 0 3 3 12 24 2 9 3 5v7l-17 9-24 12-4 4-23 11-5 2-6 2-17 8-4 1-4-5-6-14-9 2-17 8-17 9-23 11-7 3-2 6-2 2-1 13-3 3-1 9-17 9-23 11-17 9-23 11-20 10-4-1v-7l3-6 1-11 6-12 1 3-8 27-1 4 38-19 23-11 38-19 2-10 4-14 4-10 25-12 49-24h4l3 11 3 7 2 4 19-9 20-9 47-24 11-6-6-16-12-28z" fill="#0B0710"/>
<path transform="translate(1259,568)" d="m0 0h5v12l-3 6-2 9-5 10-2 7-11 23-3 9-12 25-8 15-5 6-2 5-6 7-2 5-21 21-5 2-6 5-16 8-2 2-1 14 5-3 10-2 3-2 9-2 2-2h29l4 4-7-1h-18l-15 3-16 6-4 2h-4v-19l17-10 17-12 15-15 12-17 9-16 8-16 10-22 15-37 9-26-1-2-15 8-23 11-62 31-4 6-1-4 5-5 16-8 17-9 14-7 7-5 8-2 9-5 5-4 10-3z" fill="#0B0811"/>
<path transform="translate(809,1156)" d="m0 0m-1 1m-1 1 1 2-26 12-19 10-7 4h-2l-2 4-10 16-7 10-13 20-13 19-40 60-8 11-10 15-9 14h-2l-2 5-13 19-8 12-11 17-13 19-7 11-13 19-8 11-3 1 2-4 3-4 6-12 5-6h2l6-12 5-8 7-8 6-10 7-10 7-11 6-9 7-10 6-9 7-11 7-10 4-5 3-6 8-9 6-10 7-10 7-11 6-9 7-10 6-9 7-11 7-10 7-11 6-9 7-10 3-5 5-7 3-5 4-5 20-11 21-10 3-2z" fill="#0B0710"/>
<path transform="translate(1048,435)" d="m0 0h3l1 2v56l-1 3-8 7-11 3-16 8-17 9-23 11-17 9-23 11-12 6h-7l-1-2v-56l5-5 10-6 4-3 9-3 25-12 74-37zm-3 2-23 12-80 39-22 11-2 2v57l3 1 33-17 17-8 46-23 26-12 6-4 1-2v-55z" fill="#07050B"/>
<path transform="translate(899,392)" d="m0 0h4v2l-13 5-16 8-9 5-22 12-26 13-13 5-4 4-12 31-14 36-10 19-8 11-12 13-8 6h-2v-79l2-1v74l6-4 5-1 2-6 5-6h2l2-4 5-8 4-5 4-10 3-9 5-10 2-8 4-12 6-12 2-8 5-10h2l2-4 4-3 8-1 7-6 17-9 17-8 9-3 17-8 16-8z" fill="#0C0812"/>
<path transform="translate(1112,818)" d="m0 0 9 2 10 6 4 3v2l3 1 13 17 11 17 5 9-4-1-3-4-2-5-6-8-4-7-7-7-3-6-5-6-18-9v-2l-5 4h-14v91l-5 4-23 11-16 8-13 6-6 2-25 12-9 2 4-3 29-14 20-9 19-9 19-10 2-1 1-90 4-3z" fill="#09060D"/>
<path transform="translate(727,476)" d="m0 0h8l-1 2-5 1-31 15-56 28-3 1v260l3-1v2h-5l-1-1v-262l15-7z" fill="#030104"/>
<path transform="translate(242,719)" d="m0 0 2 1v80l5-1 41-20 18-9h2v176l35-18 24-12h3l-1 3-23 11-36 18-4-1-1-171-7 2-16 8-21 10-6 2-11 5-4-2-2-2v-77z" fill="#020102"/>
<path transform="translate(453,1332)" d="m0 0 3 1v2l-28 13-56 28-19 10-34 16-21 10-16 8-21 11-19 9-19 10-22 11-3-1 5-4 128-64 9-3 17-8 15-8 9-6 21-11 23-11 1-1 9-2 7-6 8-1z" fill="#040205"/>
<path transform="translate(315,1656)" d="m0 0 4 2 13 11 9 7 15 12 11 9 12 9 9 7 4-1 12-7 16-8 22-12 16-8 21-11 4 1 11 7 18 14 17 12 11 8-2 1-6-3-6-5-5-2-7-6-5-2-11-11-7-4-5-3h-12l-16 8-8 7h-7l-8 7-1 1h-7l-8 7-7 3-6 6-9 1-4 3h-7l-8-8-2-1v-2l-7-2-10-10-5-4-6-3-9-9-5-4-6-3-13-13z" fill="#0D0913"/>
<path transform="translate(1155,626)" d="m0 0 1 3-11 31-9 22-8 17-8 14-8 10-11 11-6 4h-2v-85l-12 7-23 11-12 6-3-1 22-11 10-6 8-5 4-2 7-1 2 2v79l11-9 9-10 3-3 3-7 9-17 5-14 7-16 6-19z" fill="#08050C"/>
<path transform="translate(419,169)" d="m0 0 1 2-2 1-20 1-3 2-34 2-2 2-13 2-11 6-18 18-1 9-3 4-1 20-3 3-1 20-4 6-1-4 2-25 4-23 5-13 6-9 10-9 12-6 18-4 26-3z" fill="#09060D"/>
<path transform="translate(663,863)" d="m0 0 4 2 8 16 5 11 2 7 13 26 2 9 6 11 2 9 6 11 2 9 6 11 1 9-2-2-15-36-19-45-12-28-7-17-5 1-19 10-32 16-25 12-32 16-3 9h-1v-8l5-5 102-51z" fill="#050306"/>
<path transform="translate(746,642)" d="m0 0h13l10 5 12 11 10 12 12 18 6 10 1 2-5-1-7-14-6-8-3-5-9-10-11-11-11-6h-12l-9 4-1 89-19 10-7 4-8 5-15 7-6 2-16 8-6 5-11 3-6 2 1-3 19-9 17-9 23-11 30-15h2v-64l1-26 7-4z" fill="#0A070F"/>
<path transform="translate(1028,683)" d="m0 0 3 1-32 16-1 257-3 3h-2v-4l2-1 1-258 15-7 12-6z" fill="#030204"/>
<path transform="translate(1221,1616)" d="m0 0 2 1-1 3 12 3 16 3 29 12 19 10 14 10 15 14 7 7 9 11 11 15 6 11 10 22 4 14 2 13-4-3-2-14-2-3-2-8-16-32-6-8-3-5-9-10-25-25-5-4-23-11-9-5-9-2-10-5-1-1-18-1-7-3-5-2-1-5z" fill="#0A060E"/>
<path transform="translate(904,395)" d="m0 0 4 2-3 5-2 9-8 16-2 3-1 8-3 4-2 5-2 3-1 8-3 4-2 5-8 16-2 3-1 8-5 6h-2l-2 7-4 8-4 5h-2l-2 7-25 25-6 2-5 5-8 4-4 4-8 3 2-4 24-16 11-9 15-15 12-18 10-18 13-28 17-43z" fill="#0B0710"/>
<path transform="translate(1232,763)" d="m0 0 5 1 8 7 7 8 3 5 5 7 3 5 5 7 1 5 3 1 4 5v12l-5 5-25 12-11 5-6 2-17 8-17 9-19 9h-8l3-2 12-5 40-20 26-12 17-9 8-4-1-6-13-21-10-14-9-11-7-7z" fill="#0A060E"/>
<path transform="translate(202,170)" d="m0 0 42 4 15 4 12 5 11 8 7 11 5 12 4 22 1 9 1 20 2 9h2v9h-4l-1-14-3-3-1-27-1-7-2-2-1-14-5-12-6-10-8-6-14-7-8-1-3-3-38-1-2-4h-14v-1z" fill="#0A070F"/>
<path transform="translate(531,986)" d="m0 0 1 3-12 40-13 44-13 42-17 58h-1v-9l3-7 2-12 2-4 2-8 2-5 2-11 2-4 2-8 4-12 6-17 2-11 2-4 2-8 6-17 2-11 2-4 2-8 9-26z" fill="#0C0811"/>
<path transform="translate(964,894)" d="m0 0 3 2 1 4v79l-5 4-12 5-7 2-9 5-3 1-1 3-9 2-32 16-3 2h-7l4-3 29-14 18-8 17-9 16-8z" fill="#060409"/>
<path transform="translate(1217,955)" d="m0 0 2 1-16 8-29 14-136 68-3-1 8-5 142-71 17-9 8-4z" fill="#040205"/>
<path transform="translate(299,62)" d="m0 0h1l-2 41-2 8-2 13-5 13-6 10-8 7-12 6-21 5-12 2-23 1 2-4 31-1 1-3 16-1 16-8 7-5 4-7 6-12 1-3 1-18 3-6 1-32 2-5z" fill="#09060D"/>
<path transform="translate(323,514)" d="m0 0m-2 1h2l-1 3-19 9-54 27-31 14-19 10-48 24h-3l5-5 82-41 9-3 25-12 48-24z" fill="#07040A"/>
<path transform="translate(875,823)" d="m0 0 5 2v101l-2 3h-2z" fill="#050307"/>
<path transform="translate(567,1153)" d="m0 0h1v13l-3 3-1 9-17 9-23 11-17 9-23 11-20 10-4-1v-7l3-6 1-11 6-12 1 3-8 27-1 4 38-19 23-11 38-19 2-10 3-12z" fill="#060408"/>
<path transform="translate(1259,568)" d="m0 0h5v12l-3 6-2 9-5 10-3 1 1-5 10-29-1-2-15 8-23 11-62 31-4 6-1-4 5-5 16-8 17-9 14-7 7-5 8-2 9-5 5-4 10-3z" fill="#0A070F"/>
<path transform="translate(1100,131)" d="m0 0 3 1-16 8-17 8-19 10-32 16-21 10-28 14-3-1 8-5 108-54 11-6z" fill="#050306"/>
<path transform="translate(465,961)" d="m0 0 2 1-16 9-29 13-19 10-30 15-19 10-40 20-3-1 16-8 19-10 14-7 9-6 62-31 9-3z" fill="#08050C"/>
<path transform="translate(563,1468)" d="m0 0v3l-12 18-9 14-13 20-14 20-13 19-10 14-7 11-3 1 2-6 6-10 9-11 6-9 7-11 3-3 3-6 8-9 6-10 5-8 5-9 6-9 7-9 3-5z" fill="#08050B"/>
<path transform="translate(780,826)" d="m0 0h1l1 240 3 1-5-1-1-6v-104z" fill="#A676FC"/>
<path transform="translate(556,1721)" d="m0 0 4 2 17 12 16 12 13 10 12 9 36 26 14 10 8 6-2 1-6-3-6-5-6-3-8-7v-2l-7-2-7-6-6-3-8-7v-2l-7-2-9-8v-2l-7-2-9-8v-2l-7-2-9-8v-2l-7-2-9-8z" fill="#0C0811"/>
<path transform="translate(479,1666)" d="m0 0 4 1 11 7 18 14 17 12 11 8-2 1-6-3-6-5-5-2-7-6-5-2-11-11-7-4-5-3h-12l-16 8-8 7h-9l4-4 28-15z" fill="#0E0A15"/>
<path transform="translate(453,1332)" d="m0 0 3 1v2l-28 13-56 28-19 10-4 1 1-3 19-9 10-7 36-18 11-6 9-2 7-6 8-1z" fill="#09060C"/>
<path transform="translate(668,872)" d="m0 0 3 1 9 19 2 7 13 26 2 9 6 11 2 9 6 11 2 9 6 11 1 9-2-2-15-36-19-45-12-28z" fill="#0E0A15"/>
<path transform="translate(1314,904)" d="m0 0h8l-4 3-45 22-27 14-23 11-4 1 5-5 19-10 46-23 17-9z" fill="#070409"/>
<path transform="translate(308,785)" d="m0 0h1l1 161 35-18 24-12h3l-1 3-23 11-36 18-4-1z" fill="#020102"/>
<path transform="translate(735,482)" d="m0 0h1v74l6-4 5-1 2-6 5-6h2l2-4 5-8 4-5 4-8 2-1-2 6-7 13-8 11-12 13-8 6h-2v-79z" fill="#302148"/>
<path transform="translate(463,608)" d="m0 0 3 1-29 14-23 11-20 10-19 10-28 14-2-1 10-7 88-44 9-3z" fill="#07040A"/>
<path transform="translate(469,607)" d="m0 0 3 2v81l-5 5-8 4-6 5-9 1v2l-5 4-7 1 2-4 24-12 10-6 1-1z" fill="#07040A"/>
<path transform="translate(470,959)" d="m0 0 2 1v86l-19 10-7 4h-2l-1 3-9 2-2 1 2-4 22-11 13-7 1-83-3-1z" fill="#0B0710"/>
<path transform="translate(1088,655)" d="m0 0 4 1v47h-1l-2-9-3-24-3-3h-10l2-4 3-3z" fill="#FCFBFD"/>
<path transform="translate(212,1573)" d="m0 0 4 2 14 11 11 9 16 13 14 12 8 6 13 11 9 7 12 9 2 3-4-2-8-5-9-8-6-3-9-9-5-4-6-3-13-13-5-4-6-3-9-9-5-4-6-3-9-9-3-2z" fill="#0A060E"/>
<path transform="translate(871,760)" d="m0 0 3 1-16 9-30 14-38 19-5 2v-2l9-7 9-2 8-6 15-8 18-8 8-3z" fill="#08050C"/>
<path transform="translate(967,196)" d="m0 0m-2 1h2v2l-58 29-19 10-21 10-16 8-6 2 4-4z" fill="#020102"/>
<path transform="translate(620,995)" d="m0 0h1l3 23 6 24 1 6-15 7-26 13-4 1 1-7 1 2 8-3 25-12 6-3-1-5-2-3-1-11-3-5z" fill="#09060D"/>
<path transform="translate(1221,1616)" d="m0 0 2 1-1 3 12 3 16 3 29 12 19 10 7 5-1 2-5-3-16-8-13-7-9-2-10-5-1-1-18-1-7-3-5-2-1-5z" fill="#0D0913"/>
<path transform="translate(1181,723)" d="m0 0m-1 1m-1 1m-2 1 5 1-4 2-7 6-16 8-2 2-1 14 5-3 10-2 3-2 9-2 2-2h29l4 4-7-1h-18l-15 3-16 6-4 2h-4v-19l17-10z" fill="#09060D"/>
<path transform="translate(1322,1568)" d="m0 0m-1 1m-1 1m-1 1m-1 1m-1 1m-1 1m-1 1m-1 1m-1 1m-1 1m-1 1m-1 1m-2 1 2 1-4 5-13 8-19 10-28 10-17 4-7-1 1-2 12-2 3-2 13-2 3-2 9-2 8-4 3-2 9-2 8-6 13-7z" fill="#08050B"/>
<path transform="translate(955,896)" d="m0 0 3 1-21 11-20 9-19 10-21 11h-1v-6l7-2 44-22 9-3z" fill="#070409"/>
<path transform="translate(720,743)" d="m0 0m-2 1h2l-1 3-8 4-5 4-19 9-6 2-16 8-6 5-11 3-6 2 1-3 19-9 17-9 23-11z" fill="#0C0811"/>
<path transform="translate(243,1074)" d="m0 0 1 2v77l-4-2v-73z" fill="#020103"/>
<path transform="translate(809,1156)" d="m0 0m-1 1m-1 1 1 2-26 12-19 10-7 4h-2l-2 4-10 16-5 5v-3l5-8 5-7 3-5 4-5 20-11 21-10 3-2z" fill="#0D0914"/>
<path transform="translate(868,1024)" d="m0 0 2 1-7 6-23 11-17 9-23 11-13 6v-3l48-24 19-10z" fill="#0B0710"/>
<path transform="translate(500,1090)" d="m0 0 1 3-10 32-14 48h-1v-9l3-7 2-12 2-4 2-8 2-5 2-11 2-4 2-8 4-12z" fill="#0D0913"/>
<path transform="translate(847,521)" d="m0 0h1v5l-26 26-6 2-5 5-8 4-4 4-8 3 2-4 24-16 11-9 15-15z" fill="#070409"/>
<path transform="translate(308,1124)" d="m0 0h2v17h-2v-13l-46 23-9 3-7 2 3-3 33-16 16-8z" fill="#07040A"/>
<path transform="translate(954,480)" d="m0 0h2v2l-36 18-1 1v57h4v2h-6l-1-2v-56l5-5 10-6 4-3 9-3z" fill="#030104"/>
<path transform="translate(879,665)" d="m0 0m-2 1h2l-1 3-6 3-7 2-6 5-23 11-16 8-5 2h-5l2-3 24-11 38-19z" fill="#0A060E"/>
<path transform="translate(667,344)" d="m0 0m-2 1h2v2l-24 12-19 10-42 21-3-1 8-5z" fill="#020102"/>
<path transform="translate(1175,94)" d="m0 0m-2 1h2l-1 3-23 11-26 12-20 10-2-1 8-6 15-8 17-8 9-3z" fill="#09060C"/>
<path transform="translate(1115,819)" d="m0 0 6 1 10 6 4 3v2l3 1 13 17 11 17 5 9-4-1-3-4-2-5-6-8-4-7-7-7-3-6-5-6-18-9z" fill="#0C0812"/>
<path transform="translate(605,1406)" d="m0 0 1 2-13 19-7 11-13 19-8 11-3 1 2-4 3-4 6-12 5-6h2l6-12 5-8 7-8 4-6z" fill="#0C0811"/>
<path transform="translate(1232,763)" d="m0 0 5 1 8 7 7 8 3 5 5 7 3 5 5 7 1 5 3 1 4 5v7l-3-3-13-21-10-14-9-11-7-7z" fill="#100B18"/>
<path transform="translate(1034,1044)" d="m0 0 2 1-4 4-27 12-19 10-15 8-2-1 1-2 14-7 9-6 16-8 5-3 9-2z" fill="#0A060E"/>
<path transform="translate(308,770)" d="m0 0h2v15h-2l-1-9-7 2-16 8-21 10-7 2 1-3 29-14z" fill="#08050B"/>
<path transform="translate(591,544)" d="m0 0 4 1-17 9-23 11-48 24h-2v-2z" fill="#050307"/>
<path transform="translate(1041,437)" d="m0 0h2l-1 3-28 14-23 11-33 16-2-1 7-4z" fill="#020103"/>
<path transform="translate(1048,435)" d="m0 0h3l1 2v56l-1 3-8 7-9 1 2-3 12-6 1-2v-55h-6v-2z" fill="#09060D"/>
<path transform="translate(320,679)" d="m0 0 3 1-42 20-34 17h-3l9-6 62-31z" fill="#07040A"/>
<path transform="translate(736,1034)" d="m0 0 3 3 12 24 2 9 3 5v7l-17 9-16 8-3 1 1-3 32-16 1-2-14-34-4-9z" fill="#110B19"/>
<path transform="translate(899,392)" d="m0 0h4v2l-13 5-16 8-9 5-22 12-26 13-2-1 16-9 30-15h2l1-3 17-8 16-8z" fill="#644798"/>
<path transform="translate(619,1767)" d="m0 0 9 6 16 12 28 20 4 4-7-2-7-6-6-3-8-7v-2l-7-2-7-6-6-3-8-7z" fill="#0F0A16"/>
<path transform="translate(662,865)" d="m0 0 4 1 4 10v2h-2v-2l-11-1-11 3h-5v-2z" fill="#F5F0FD"/>
<path transform="translate(1230,846)" d="m0 0m-2 1h2l-1 3-17 8-17 9-19 9h-8l3-2 12-5 40-20z" fill="#0C0811"/>
<path transform="translate(736,646)" d="m0 0m-1 1h1v91l-14 7-2-1 8-5 6-2v-64z" fill="#020102"/>
<path transform="translate(307,1039)" d="m0 0 4 1-42 20-23 12-2 1 1-4 58-29z" fill="#020102"/>
<path transform="translate(936,991)" d="m0 0m-2 1h2l-2 4h-2l-1 3-9 2-32 16-3 2h-7l4-3 29-14 18-8z" fill="#07050A"/>
<path transform="translate(323,514)" d="m0 0m-2 1h2l-1 3-19 9-46 23-2-1 8-5 54-27z" fill="#020102"/>
<path transform="translate(1235,64)" d="m0 0m-2 1h2l-1 3-32 16-25 12-2-1 8-5z" fill="#020102"/>
<path transform="translate(817,572)" d="m0 0h26v1l-24 3-20 7-7 2-1-1v-8l2 3h7l6-3 9-2z" fill="#08050B"/>
<path transform="translate(639,1355)" d="m0 0v3l-7 11-9 13-16 24-3 1 2-4 6-10 7-10 7-11 10-15z" fill="#110B19"/>
<path transform="translate(874,759)" d="m0 0 2 1v63l-2 2v-61l-3-1 1-2h2z" fill="#8B819C"/>
<path transform="translate(496,1676)" d="m0 0 8 6 36 26-2 1-6-3-6-5-5-2-7-6-5-2-11-11-2-1z" fill="#0E0A15"/>
<path transform="translate(1259,568)" d="m0 0h5v12l-3 6-2 9-5 10-3 1 1-5 10-29-1-2-5 3-2-1z" fill="#0C0811"/>
<path transform="translate(202,170)" d="m0 0 42 4 3 2h-38l-2-4h-14v-1z" fill="#0F0A17"/>
<path transform="translate(618,966)" d="m0 0h1l1 27-3-1-1-5-1-14-5 3h-10l4-3z" fill="#100B17"/>
<path transform="translate(563,1468)" d="m0 0v3l-12 18-9 14-6 9-2-1 8-15 6-9 7-9 3-5z" fill="#07040A"/>
<path transform="translate(969,1077)" d="m0 0m-2 1h2v2l-60 30-2-1 8-5z" fill="#020102"/>
<path transform="translate(531,986)" d="m0 0 1 3-12 40-2 7h-2v-8l3-7 2-8 9-26z" fill="#0F0A16"/>
<path transform="translate(737,1210)" d="m0 0v3l-15 23-13 19h-3l6-10 7-10 7-11 8-11z" fill="#0C0811"/>
<path transform="translate(719,1098)" d="m0 0 1 2-8 6-17 9-8 4-9 1 2-3 16-7z" fill="#0A060E"/>
<path transform="translate(1343,65)" d="m0 0h2v18h-1l-2-7-3-3-4 2-10 2 2-4z" fill="#0B0710"/>
<path transform="translate(682,762)" d="m0 0m-3 1h3l-1 3-16 8-6 5-11 3-6 2 1-3 19-9z" fill="#110C19"/>
<path transform="translate(212,1573)" d="m0 0 4 2 14 11 22 18-1 2-8-5-8-8-5-4-6-3-9-9-3-2z" fill="#0A070F"/>
<path transform="translate(471,1041)" d="m0 0h1v5l-19 10-7 4h-2l-1 3-9 2-2 1 2-4 22-11 13-7z" fill="#0D0913"/>
<path transform="translate(375,163)" d="m0 0 28 1 1 4h-12l-16-1-6-1v-2z" fill="#07050B"/>
<path transform="translate(663,1320)" d="m0 0v3l-20 30-1 2h-3l2-6 6-8 6-9 6-8z" fill="#09060D"/>
<path transform="translate(1221,1616)" d="m0 0 2 1-1 3 12 3 12 2 1 2-2 1h-13l-7-3-5-2-1-5z" fill="#110C1A"/>
<path transform="translate(579,388)" d="m0 0m-2 1h2l-1 3-29 14-11 5-2-1 5-5 10-3 16-8z" fill="#050306"/>
<path transform="translate(1204,700)" d="m0 0 1 2-2 5-20 20-4-1 20-20z" fill="#030204"/>
<path transform="translate(727,476)" d="m0 0h8l-1 2-5 1-31 15-3-1 8-5z" fill="#050307"/>
<path transform="translate(358,496)" d="m0 0 2 1-3 3-32 16-2-1 3-3 6-3 7-5 9-3z" fill="#0E0A15"/>
<path transform="translate(806,436)" d="m0 0h7v2l-12 6-7 17-3 2 2-10 5-10h2l2-4z" fill="#0F0A16"/>
<path transform="translate(1322,1568)" d="m0 0m-1 1m-1 1m-1 1m-1 1m-1 1m-1 1m-1 1m-1 1m-1 1m-1 1m-1 1m-1 1m-2 1 2 1-4 5-13 8-9 5-3-1 10-7 13-7z" fill="#0C0812"/>
<path transform="translate(538,1508)" d="m0 0h2l-2 5-7 11-7 10-5 7h-2l2-5 15-22z" fill="#DCCAFC"/>
<path transform="translate(1224,668)" d="m0 0 1 3-7 13-5 6-2 5-5 6-2-2 10-15 8-14z" fill="#0F0A16"/>
<path transform="translate(695,492)" d="m0 0m-2 1h2v2l-23 12-12 6-2-1 5-4z" fill="#020102"/>
<path transform="translate(1340,1551)" d="m0 0v3l-9 10-6 7-11 9-3 3-2-1 14-14 4-1 1-4z" fill="#030204"/>
<path transform="translate(556,1721)" d="m0 0 4 2 17 12 10 8-1 2-6-3-8-7v-2l-7-2-9-8z" fill="#0C0811"/>
<path transform="translate(599,976)" d="m0 0h1v30l-3 3h-1l1-20 1-12z" fill="#130D1C"/>
<path transform="translate(209,164)" d="m0 0h27v2l-20 2h-9z" fill="#020102"/>
<path transform="translate(954,480)" d="m0 0h2v2l-36 18-4 4 2-5 7-4 10-7 9-3z" fill="#171022"/>
<path transform="translate(720,994)" d="m0 0 3 3 8 16 2 9 3 6v5l-2-2-11-27-3-7z" fill="#110C19"/>
<path transform="translate(1155,626)" d="m0 0 1 3-10 28-3 1 2-9 4-12z" fill="#0A060E"/>
<path transform="translate(914,648)" d="m0 0m-2 1h2v2l-34 17v-3l19-10z" fill="#040205"/>
<path transform="translate(499,1563)" d="m0 0v3l-14 21-3 1 2-6 6-10 5-6z" fill="#100B17"/>
<path transform="translate(871,763)" d="m0 0 3 1v62h-1l-1-55-3-4z" fill="#FEFEFE"/>
<path transform="translate(961,893)" d="m0 0h3v21l-3-3v-6l-4-5 2-6z" fill="#E1DEE7"/>
<path transform="translate(647,1788)" d="m0 0 4 2 10 7 15 11-2 1-6-3-6-5-6-3-8-7z" fill="#100B18"/>
<path transform="translate(736,1034)" d="m0 0 3 3 12 24 1 9-3-3-12-29z" fill="#0E0A15"/>
<path transform="translate(1251,606)" d="m0 0h1l-1 9-8 16-2 2-1-3 9-22z" fill="#08050B"/>
<path transform="translate(320,679)" d="m0 0 3 1-19 9-13 6-2-1 1-2 23-11z" fill="#08050B"/>
<path transform="translate(677,1810)" d="m0 0 4 2 17 12 5 4-7-1-1-3h-5l-13-13z" fill="#08050C"/>
<path transform="translate(757,1181)" d="m0 0m-1 1m-2 1 2 1-7 11-8 12-4 4v-3l5-8 5-7 3-5z" fill="#120D1B"/>
<path transform="translate(470,1191)" d="m0 0 1 3-8 27-2 5h-1l1-9 2-3 1-11z" fill="#040205"/>
<path transform="translate(887,441)" d="m0 0h1v5l-3 4-1 8-3 4-2 5-3 7-2-1 3-9 9-22z" fill="#0D0913"/>
<path transform="translate(1181,723)" d="m0 0m-1 1m-1 1m-2 1 5 1-4 2-7 6-18 9 2-4 18-11z" fill="#160F21"/>
<path transform="translate(680,1293)" d="m0 0h2l-2 5-10 16-5 6-2-1 7-11 6-9z" fill="#120C1B"/>
<path transform="translate(1255,570)" d="m0 0m-2 1 2 1-3 3-19 9-2-1 5-5 8-3z" fill="#100B17"/>
<path transform="translate(1238,1612)" d="m0 0h10v2l-18 5-8-1 1-2 12-2z" fill="#040205"/>
<path transform="translate(484,1142)" d="m0 0 1 3-8 28h-1v-9l3-7 2-12z" fill="#060408"/>
<path transform="translate(467,961)" d="m0 0h3v8l-1 4-5-1-2-6v-2z" fill="#F0E8FD"/>
<path transform="translate(1032,943)" d="m0 0m-2 1 3 1-2 2-23 11-9 2 4-3z" fill="#09060D"/>
<path transform="translate(668,872)" d="m0 0 3 1 9 19v6l-3-3-9-22z" fill="#100B18"/>
<path transform="translate(453,1332)" d="m0 0 3 1v2l-21 10h-2v-2l9-7 8-1z" fill="#0B0811"/>
<path transform="translate(1185,605)" d="m0 0m-2 1h2v2l-24 12-4 6-1-4 5-5 16-8z" fill="#020102"/>
<path transform="translate(257,159)" d="m0 0m-16 1h16l-1 2-14 3h-6l-1-2h5z" fill="#09060D"/>
<path transform="translate(1352,1534)" d="m0 0v3l-7 11-3 3h-2l2-4 6-10zm-14 17 2 1-3 2zm-2 3m-1 1m-2 1 2 1-2 1z" fill="#140E1E"/>
<path transform="translate(817,572)" d="m0 0h26v1l-24 3-6 1z" fill="#040206"/>
<path transform="translate(184,168)" d="m0 0h19l-1 3-16 1-2-1z" fill="#7150AB"/>
<path transform="translate(330,1290)" d="m0 0m-22 1h2v8l17-8h3v2l-15 7h-6l-1-1z" fill="#07040A"/>
<path transform="translate(1341,892)" d="m0 0 2 1-5 5-14 6-2-1 8-7 8-1z" fill="#1B1228"/>
<path transform="translate(190,1555)" d="m0 0 4 2 14 12 4 3-1 2-8-5-13-13z" fill="#040306"/>
<path transform="translate(721,1234)" d="m0 0 1 2-13 19h-3l6-10 7-9z" fill="#0A070F"/>
<path transform="translate(442,1685)" d="m0 0m-1 1m-2 1h2l-2 4-5 5-7-1 4-4z" fill="#0A070F"/>
<path transform="translate(315,1656)" d="m0 0 4 2 13 11 4 3-1 2-8-5-12-12z" fill="#040306"/>
<path transform="translate(450,1054)" d="m0 0m-2 1h2l-1 3-5 2-1 3-9 2-2 1 2-4z" fill="#140E1D"/>
<path transform="translate(539,958)" d="m0 0 1 3-7 24h-1v-9l3-7 2-8z" fill="#0B070F"/>
<path transform="translate(547,930)" d="m0 0 1 3-7 24h-1v-10l3-5 2-9z" fill="#0B070F"/>
<path transform="translate(779,493)" d="m0 0h2l-3 10-4 10-3 1 2-9z" fill="#110B19"/>
<path transform="translate(595,1012)" d="m0 0h1v27l-4 2z" fill="#0B0710"/>
<path transform="translate(1091,653)" d="m0 0h2v49h-1l-1-46z" fill="#EADFFC"/>
<path transform="translate(373,1372)" d="m0 0m-1 1m-2 1h2l-1 3-20 10-2-1 1-2 19-9z" fill="#110C1A"/>
<path transform="translate(336,1673)" d="m0 0 4 2 12 10 4 3-1 2-8-5-8-8-3-2z" fill="#0B0710"/>
<path transform="translate(307,1039)" d="m0 0 4 1-19 9-3-1 8-5z" fill="#08050B"/>
<path transform="translate(1376,1464)" d="m0 0h1l-1 13-2 8-3 1 2-13z" fill="#120C1B"/>
<path transform="translate(955,896)" d="m0 0 3 1-21 11-5 1v-2z" fill="#120C1B"/>
<path transform="translate(323,514)" d="m0 0m-2 1h2l-1 3-16 8-3-1 8-5z" fill="#050307"/>
<path transform="translate(554,400)" d="m0 0 2 1-3 3-15 7-2-1 5-5 10-3z" fill="#120C1B"/>
<path transform="translate(356,1689)" d="m0 0 4 2 12 10 3 2-1 2-5-2-10-10-3-2z" fill="#0F0A16"/>
<path transform="translate(1012,950)" d="m0 0m-3 1h3v3l-9 4h-3l-1-4z" fill="#F7F4FD"/>
<path transform="translate(1050,493)" d="m0 0 1 3-8 7-9 1 2-3 12-6z" fill="#0C0811"/>
<path transform="translate(794,796)" d="m0 0h7v2l-14 7h-2v-2z" fill="#0C0811"/>
<path transform="translate(446,702)" d="m0 0m-2 1h2v2h-2v2l-5 4-7 1 2-4z" fill="#100B17"/>
<path transform="translate(806,436)" d="m0 0h7v2l-15 7v-2h2l2-4z" fill="#100B17"/>
<path transform="translate(567,1153)" d="m0 0h1v13l-3 3h-2l2-11z" fill="#050307"/>
<path transform="translate(804,688)" d="m0 0 5 4 6 2v3l-6 2-5-8z" fill="#F3EDFD"/>
<path transform="translate(603,1755)" d="m0 0 16 12-1 2-6-3-8-7z" fill="#0D0813"/>
<path transform="translate(534,1512)" d="m0 0 1 2-9 13h-2l2-4 6-10z" fill="#0D0813"/>
<path transform="translate(432,709)" d="m0 0m-3 1h3v2l-16 8-4 1 4-4z" fill="#020102"/>
<path transform="translate(300,272)" d="m0 0h2v2h2v9h-4z" fill="#211731"/>
<path transform="translate(296,1641)" d="m0 0 4 2 13 10 2 3-4-2-8-5-7-6z" fill="#160F20"/>
<path transform="translate(879,665)" d="m0 0m-2 1h2l-1 3-6 3-7 2-3 2 2-4z" fill="#120C1A"/>
<path transform="translate(1202,596)" d="m0 0 2 1-3 3-14 7-2-1 1-2z" fill="#160F20"/>
<path transform="translate(805,558)" d="m0 0m-1 1m-2 1h2l-2 4-3 3-8 3 2-4z" fill="#060308"/>
<path transform="translate(614,1392)" d="m0 0 1 2-8 12-3 1 2-4 6-10z" fill="#120C1B"/>
<path transform="translate(712,975)" d="m0 0h2l5 10 1 9-2-2-6-15z" fill="#120C1B"/>
<path transform="translate(818,549)" d="m0 0m-1 1m-1 1v3l-5 5-7 3 2-4z" fill="#0E0914"/>
<path transform="translate(1040,442)" d="m0 0 6 1-1 4-2 2-5-1v-4h2z" fill="#FEFEFE"/>
<path transform="translate(556,1721)" d="m0 0 4 2 11 8-1 2-6-3-8-7z" fill="#0E0A15"/>
<path transform="translate(706,1256)" d="m0 0v3l-7 11-3 1 2-4 6-10z" fill="#0E0A15"/>
<path transform="translate(259,1062)" d="m0 0m-2 1 2 1-3 3-12 6 1-4z" fill="#0E0A15"/>
<path transform="translate(936,991)" d="m0 0m-2 1h2l-2 4h-2l-1 3-6 1v-3z" fill="#0A070F"/>
<path transform="translate(520,1022)" d="m0 0 1 3-3 11h-2v-8l3-5z" fill="#060408"/>
<path transform="translate(1263,1606)" d="m0 0m-2 1h2v2l-11 4h-4v-2l6-3z" fill="#140E1D"/>
<path transform="translate(591,1043)" d="m0 0h1v15l-4 4 1-8z" fill="#0F0A16"/>
<path transform="translate(524,1009)" d="m0 0 1 3-3 10-3 1 2-10z" fill="#0B070F"/>
<path transform="translate(1215,752)" d="m0 0h7l6 5 2 4-4-2-11-6z" fill="#0F0A16"/>
<path transform="translate(1175,94)" d="m0 0m-2 1h2l-1 3-13 6-2-1 3-3z" fill="#0B070F"/>
<path transform="translate(538,1508)" d="m0 0h2l-2 5-5 8-3 1 2-5z" fill="#DAC6FC"/>
<path transform="translate(757,1181)" d="m0 0m-1 1m-2 1 2 1-7 11h-3l3-6z" fill="#191125"/>
<path transform="translate(985,1068)" d="m0 0m-1 1m-2 1h2l-1 3-12 6-2-1 1-2z" fill="#140E1E"/>
<path transform="translate(541,1710)" d="m0 0 4 2 11 8-2 1-6-3-7-6z" fill="#0B0710"/>
<path transform="translate(488,1129)" d="m0 0 1 3-3 10-3 1 2-10z" fill="#0B0710"/>
<path transform="translate(735,735)" d="m0 0 1 3-14 7-2-1 8-5z" fill="#060409"/>
<path transform="translate(480,1156)" d="m0 0 1 3-4 14h-1v-9z" fill="#0B0811"/>
<path transform="translate(906,1108)" d="m0 0 2 1-3 3-11 5h-2v-2z" fill="#1A1227"/>
<path transform="translate(515,1036)" d="m0 0h2l-1 7-2 6-3 1 2-9z" fill="#150F20"/>
<path transform="translate(527,1699)" d="m0 0 9 6 4 4-7-2-6-5z" fill="#160F21"/>
<path transform="translate(751,1070)" d="m0 0 3 1 2 4v7l-4 2 2-5z" fill="#171022"/>
<path transform="translate(888,658)" d="m0 0h3v2l-12 6h-2l1-3z" fill="#E6D9FD"/>
<path transform="translate(855,510)" d="m0 0 1 4-5 6h-2l-1 2v-3l6-8z" fill="#110C1A"/>
<path transform="translate(1372,1752)" d="m0 0h2l2 13-4-3z" fill="#0C0812"/>
<path transform="translate(554,916)" d="m0 0 2 1-5 6-2 7h-1v-8l5-5z" fill="#171023"/>
<path transform="translate(1034,1044)" d="m0 0 2 1-4 4-9 3 1-3z" fill="#181124"/>
<path transform="translate(892,1012)" d="m0 0m-1 1m-3 1h3l-1 3-3 2h-7l4-3z" fill="#0D0913"/>
<path transform="translate(1020,946)" d="m0 0h4v2l-10 5h-2l1-3 4-2h3z" fill="#E8DCFD"/>
<path transform="translate(320,1292)" d="m0 0 2 1-3 3-4 2h-4l1-3z" fill="#FAF8FD"/>
<path transform="translate(1211,690)" d="m0 0 1 4-6 7-2-2z" fill="#130D1C"/>
<path transform="translate(1167,614)" d="m0 0m-2 1h2v2l-8 5-3 4 1-6 5-4z" fill="#130D1C"/>
<path transform="translate(337,505)" d="m0 0m-1 1m-1 1m-2 1 2 1-4 4-6 3-2-1 3-3 6-3z" fill="#191125"/>
<path transform="translate(358,496)" d="m0 0 2 1-3 3-8 4-2-1 3-3z" fill="#191125"/>
<path transform="translate(746,642)" d="m0 0m-4 1h4v2l-9 4v-3z" fill="#140E1D"/>
<path transform="translate(1322,1568)" d="m0 0m-1 1m-1 1m-1 1m-1 1m-1 1m-1 1m-1 1m-1 1m-1 1m-1 1m-1 1m-1 1m-2 1 2 1-4 5-2-1z" fill="#140E1E"/>
<path transform="translate(1012,953)" d="m0 0m-2 1h2v2l-10 4-3-1z" fill="#140E1E"/>
<path transform="translate(582,809)" d="m0 0v3l-8 4-4-1z" fill="#F9F7FD"/>
</svg>
